<svg xmlns="http://www.w3.org/2000/svg" width="384" height="384" viewBox="0 0 176 176"><rect width="176" height="176" fill="#D97F44"/><path d="M37 45h2l2 4l1 5l6 8l1 1l2 -5h5l-1 5l-2 2l1 4h3l3 1V68h2l1 1l2 -1l1 -4L76 57h7l5 2V57h4V55l5 1L94 52l6 2l3 5v7l-3 6l-4 6l-5 5L84 93l-3 5L71 97V95H45L44 90l-7 1L32 89l1 -4l4 -3H47L43 77L38 65L37 60Z" fill="#F0BF61"/><path d="M4 29l2 1L2 35l39 1l-2 9H37l1 15l4 13l5 8l1 2H37l-6 4H24L19 81L17 80H9L5 84L3 86L0 85V53H14l5 -1L16 51L14 48L7 47v2H4v2L0 52V32L3 31Z" fill="#D67944"/><path d="M145 145l2 1v3h5l-1 4l-2 1l-3 -4h-2l-3 10h-8l1 7l3 3v2h-2v2l11 1v1H23l-5 -1l1 -2h7l1 -3l1 2l5 2l-1 -4h4v-4h8l15 2H76l13 -2H77l-2 -2l17 -2h11l5 1l1 5l6 1l-3 -5l1 -5l2 -2l26 -11ZM50 169l3 2l5 2H75l6 -1v-2Z" fill="#413846"/><path d="M78 7H99l13 5v2h-2v5l-6 3H96l3 -5l-7 1l-6 5l-3 2H79l1 -5l4 -4l-6 2l-4 4l-2 6l-6 3l-2 2l-2 7l-2 2L47 44l-4 5V47l-3 1L39 47l1 -9l2 -2l2 -5l6 -8l9 -8l7 -5Z" fill="#F9D570"/><path d="M0 96H71l9 1l1 1v9l-9 -1l-3 -3H62l-7 2l-11 1v2l-9 1l-4 -3l-6 -2l-1 -1l-7 1l-8 6l-6 3H0Z" fill="#E6A356"/><path d="M112 13l5 2l10 9l7 9l5 11l1 5V69l-6 2h-6l1 -4l7 -4V61l-9 -4l-3 -3V51l5 -3l-9 -3l-2 -4l7 -3L115 36l-1 -3l2 -2h-6l-2 -1V28h-5V26l7 -4l1 -7Z" fill="#F4C962"/><path d="M62 102h7l1 3l9 1l-4 2l-7 5l-13 3H52v-5l-2 7l-2 -1v-2l-4 4l-5 5l-22 1l-7 -5L7 118l6 -1H25l9 -7h4v-2h6v-2l2 -1l14 -2Z" fill="#D47B63"/><path d="M9 79h8l6 5v5H21l2 3l5 1V91H23V90l8 -1l2 1v2H44l1 3H71v1L35 97L0 96V85L4 84Z" fill="#F9C563"/><path d="M0 139H28v15L10 153L4 149l3 7H1l2 7l3 5l-6 1Z" fill="#90BDA5"/><path d="M163 136h13v40H152l1 -3l10 -2l5 -6l-1 -4l2 -5v-4l2 -8l-9 1v-2h-2l2 -6Z" fill="#3D3347"/><path d="M0 116l5 1l8 4l4 3H38l-6 7l-1 2H0Z" fill="#B86758"/><path d="M19 102h5l2 2l7 2l5 4l-7 3l-6 5H5L0 116v-3l10 -5Z" fill="#DF8866"/><path d="M118 73h3l-1 10h1l1 -6l1 2l6 -4l2 1l-1 5h-2l-1 5h-2V84h-2l2 6l-4 3h-2l2 2l-3 1l-3 -2l-5 8h-2l-2 7l-1 5h-2v-7l3 -10H96V96l12 -3l3 -5h2l1 -6l-3 -3l-7 -1l-4 2H94V78h2l2 -4l1 2l-1 2l5 -2l9 1l3 3h2Z" fill="#6A5E4B"/><path d="M97 84l9 1l5 4l-2 4l-8 3h6l-3 6l-7 4l-9 1l-1 -1l1 -9l4 -2V94l1 -5Z" fill="#F5C756"/><path d="M157 15h6v2l6 2l3 9l1 2H138V29l13 -1H140l1 -3h4l2 -4l4 -5Z" fill="#F4CA63"/><path d="M124 114l2 1l6 -1l-3 5l2 1l-14 10l-5 4l-3 3l-7 3l-5 2l-5 -1l-3 -4l1 -2h2l1 -2l-3 -1l1 -3h4l1 -2l2 1l-2 4l5 -4l2 1l-4 3l1 3l3 -5l2 1l-2 3l4 -4l7 -3l3 -6l5 -6Z" fill="#463A38"/><path d="M148 125h1v8l-3 7l-10 4l-17 5l-13 6l2 -4l11 -7l17 -11Z" fill="#756978"/><path d="M16 22h5l7 3v2l4 3v3l7 2v1H1L6 29h5l1 -4Z" fill="#F7CE64"/><path d="M175 60h1V71l-2 6l-3 3l-3 7l-3 5l-2 6l-1 9h-3v13h2l-1 2l-4 -1l-3 1l1 -5l5 -16l1 -8l8 -16l4 -10Z" fill="#584F5B"/><path d="M174 14h1l1 5V41l-4 8l1 2v3h-4l-2 4h-2l-1 11l-3 10l-2 1V76l-3 1l1 -3V66l-2 -6h3l3 9l1 -2l1 -9l5 -6l1 -3h-5l-3 -2l-3 2l-6 -1V47l7 -1l-9 -1V44h13l2 3h5l3 -6l1 -12l-4 -2V24l4 1Z" fill="#543F3C"/><path d="M105 28h3v2h10l-2 3h-2l1 2l11 2l-3 3l-4 1l1 3l10 3l-1 2h-8l1 1v2l-4 -1V49h-3l1 -4l-2 -4l-2 3l-5 -6l-5 -2V34l4 -1Z" fill="#6E7361"/><path d="M159 98l1 3l-5 16l-2 5l2 1l-9 4l-11 8l-7 4h-3v-2l-2 -1l4 -1l5 -2l4 -3l-2 -1l1 -3v2h6l2 -4l4 -6l3 -2l3 -6l2 -6l1 -2h2Z" fill="#43383F"/><path d="M114 135l2 1l-1 3h4l-1 4l-13 8l-6 2l-13 1l-3 -2l5 -1l-3 -3l4 -1v2l6 -1l5 1l5 -1h2l-1 -2l-8 1l-2 -3h5l2 -3l-4 -1l9 -3v2l5 1Z" fill="#B78137"/><path d="M110 14l2 1l-1 7l-5 3l-8 1l-2 3L86 31V29l8 -3H93l-8 3l-3 1l-1 4L70 36l3 -3h3V31h4l5 -5V25L83 24l5 -2l1 -3l7 -3l4 1l-3 4h7l5 -2Z" fill="#866E45"/><path d="M48 121l3 3l3 4h1v5h6l1 -6l2 -6l1 3l1 4H63l2 10l3 -1l-1 5l-4 -2l4 7l-5 5l-2 -2l3 -2l-4 -6l1 -4H57v7H56v-7H48l-2 -9l-2 -5l4 4l2 4v-4l-2 -2Z" fill="#82633C"/><path d="M165 155l5 1l-2 6v4l-5 6l-2 1h-9l-2 2l1 -5l3 -4l2 -4l5 -6Z" fill="#E79046"/><path d="M146 0h22V7l3 6V23l-2 1V19l-3 -1V16h-2l-2 -5L157 5L154 3H142Z" fill="#8F5F3C"/><path d="M148 85l4 1l4 9l-1 10l-2 6l-3 6l-5 -1v-3l-4 1l-3 -3l3 -2v3h3l2 -4l2 1l-1 5h2v-8h2v-3l-2 -1l2 -2l-4 -1V97h-3V94l-2 -2h2l1 -3l5 2l2 1V90h-2Z" fill="#C99439"/><path d="M77 118h1l2 10l1 4l5 5v2l-4 -2l-4 -7v5l3 3v2h8l5 1l-2 2l-9 1l-3 3l-4 -1l-10 2l-2 -5l8 1h3l6 -2l-9 -8l-1 -5l2 -9h3Z" fill="#4E4F48"/><path d="M170 52l1 2l3 -1l-2 5l-3 3l-2 10v1h1v6l-8 18l-2 5l-1 -3l3 -12l1 -2l-4 4l1 -6l3 -6l2 -7l1 -9l3 -3Z" fill="#7D7076"/><path d="M87 44l9 1l-1 2l-8 2h6l-4 3L83 51l1 3L74 57L62 66l-5 2L54 66V63l9 -2l8 -7l4 -3h2L76 46h2l2 3Z" fill="#E2AD3D"/><path d="M47 136l1 2l3 -1l9 1l1 6l3 5l-4 4l-3 1H44l-3 -3l-2 -2h3l-2 -4h2v-3l-5 -1l-3 -2l1 -2l10 5v-4ZM49 139l-3 4v7l2 2h9l1 -2l-2 -5l-1 -6Z" fill="#63634F"/><path d="M66 43l2 1l-4 3l-2 5l4 -2l3 1l-6 2v2l6 -2l-3 3H64v2l-5 3H57V57l3 -1L52 55V53h3V51H51L50 47H47l1 5L46 51V46l1 -1L61 44Z" fill="#CDA751"/><path d="M0 133H30l-2 6H0Z" fill="#9DB99A"/><path d="M133 77l6 2l1 2l3 1l-1 5l-3 3l-5 -2l-4 1l-4 4l-4 4l-7 1l1 -3h4l-2 -2l3 -2h2V88V84h2v2h2l1 -5l5 1l1 -2v2h3V80l-5 -1Z" fill="#C88935"/><path d="M149 126l4 4l1 2l7 1l-2 -6l6 5l11 2v2l-13 1l-3 6l2 1l-5 3l-3 3l-3 -1l2 -4v-8l-4 -9Z" fill="#574E57"/><path d="M120 54l4 1l3 3l9 2v4l-5 3h-4l-1 9h-3l-1 7h-3l1 -7l1 -4V59Z" fill="#6C7F6B"/><path d="M144 149l4 2l2 3v15l-2 3l-7 -5l-4 -5l4 -2l2 -10Z" fill="#EA9149"/><path d="M74 147l4 1l-2 1l2 2l11 2h8l1 3l-1 1l9 4l-3 1l-9 -3l-8 -1l-1 -2l-9 2l-6 1l-1 -4Z" fill="#63584C"/><path d="M82 50l7 1l3 -1l3 2l3 3l-1 2L92 55v2l2 1L88 57v2L83 58H76L66 65l-2 5H62V68H60l1 4L56 69H53L52 61l2 3l3 3l5 -2L74 56L84 54Z" fill="#644E3C"/><path d="M74 108l3 1l-9 6l-4 5l-3 7l-1 6H58l1 -8l4 -9l-12 3l-9 6l-6 5l-2 -1l1 -3l5 -5l5 -4h2l2 -4l1 2l2 -5l1 4l-1 2l16 -4Z" fill="#6F5542"/><path d="M175 105h1v28h-1l-2 -8l-1 -1l1 2v6h-2l-1 -5v5h-2l-2 -5l1 -6l4 -13h4Z" fill="#8E6254"/><path d="M146 74l8 1v3l2 -2l4 -1l-2 12l6 -10l1 3l-4 6l-3 12v4h-2l-1 2l-1 -5h2L152 88l1 -2l-2 -4l-6 -5l2 -1l5 2V76l-6 -1Z" fill="#5E4B45"/><path d="M1 160l7 6l8 4l5 1l-1 2H18v2h5v1H0v-7l5 -2L1 162Z" fill="#3E3646"/><path d="M27 156l2 1v2l4 -1v7l-3 3H27v-3H24l1 3l-4 1v2l-7 -1v-2h2l1 -4h2v-7l6 1Z" fill="#D5A347"/><path d="M143 73l9 3v2h-4l7 8l-1 2l-5 -2l1 4h2v2l-7 -2l-1 2l-5 -1l3 -5l1 -4l-4 -1l3 -1h2l-7 -3l-4 -2h9Z" fill="#B2803A"/><path d="M47 120h6l1 1v12H53l-3 -9l-1 -1l1 4l1 1v6l-3 -4l-1 -1l1 7H46l-1 -2l-2 3l-7 -6l6 -7Z" fill="#EFB84D"/><path d="M159 107h1v12l6 2l-4 -6l1 -4l2 4l1 2l3 -8l-3 -1h5l-2 9l-2 6l1 9h2l-2 -9l3 3v6h2l-2 -8v-3l4 6l1 7l-11 -1v-5l-4 -4l-6 -1l1 -2l5 -1h-2Z" fill="#443940"/><path d="M81 157l13 1l9 3v1l-23 2l-5 1H68l-1 -3Z" fill="#78A596"/><path d="M33 128l1 2l-4 9v13l1 4h3l5 5l8 2l-2 2H40l-1 2l-2 -2l1 -2l-5 -1v-4l-4 1l-2 -2l-4 2l-4 -2v7H17l-1 4l-3 1v-3l2 -3h3v-8l7 1l3 -1l-1 -5v-9l4 -10Z" fill="#48443F"/><path d="M168 0h8V19h-1l-1 6l-4 -2V13L167 7Z" fill="#CE7743"/><path d="M159 144l4 1l1 3l-4 7l-2 1l-5 9h-2l-1 -3v-9l5 -5Z" fill="#F29649"/><path d="M121 100h4h2l1 5l-3 1v5l-4 1l-3 3l-1 -3l-5 -2l-3 3v-5l9 -6h3Z" fill="#E2AA3E"/><path d="M175 41h1V60l-3 7l-4 10l-2 -3l-2 2l1 -5l3 -12l4 -4l-1 -3l-1 -3Z" fill="#6D626B"/><path d="M10 0l1 4L9 9L17 4L19 1l2 1L18 6L25 4h7L28 7L23 8l9 4l-4 1L21 11H11L4 17L2 20H0L2 11L4 7l1 3L3 14H5L8 5Z" fill="#674738"/><path d="M108 42l7 5l5 10l-1 3l-9 -2l-1 -4l-3 -4V47H99l4 -2h3V43Z" fill="#D9A83C"/><path d="M85 24l2 1l-5 4l-4 4V31H76v2l-2 1h7v2l-4 2l-7 1l-4 1L64 39V34l6 -5l4 1l4 -3Z" fill="#D9B14B"/><path d="M105 38l3 1l-9 4H89H87l-9 5V46l-8 4l-8 2l1 -4l5 -3L82 42l4 -2l15 -1Z" fill="#ECBD46"/><path d="M75 107h4l1 5l-6 8l-1 3H69l-2 -3l-3 1l-3 12H60l1 -9l5 -8l4 -4l6 -3Z" fill="#C6A150"/><path d="M67 119l2 4l4 1l-1 7l2 6H70l-2 -4l-1 5H64L63 128l2 -1l-1 -3Z" fill="#E3AB3E"/><path d="M175 77h1v23h-5l-2 -5V87l3 -7Z" fill="#C27843"/><path d="M112 118h2l1 9l-5 3h-3l-2 4h-2v-3l-3 6l-2 -3l1 -3l2 -2l-6 5v-3l4 -5h9v-5l3 -1Z" fill="#D49C38"/><path d="M112 108l2 2l4 2l1 2l2 -3l4 1l-8 10l-2 3l-1 -7h-2l-1 3h-3V110l2 2Z" fill="#C48E36"/><path d="M35 128l4 5l4 3l2 -4l2 5H45l-1 2H42l-5 -5l-2 -1l-3 10l9 1l1 5H34l-2 -1l-1 3L29 141l3 -9Z" fill="#AE863F"/><path d="M121 126l1 2h3l-1 3h-3v3l1 -2h3l-1 4v3l-5 2v-2h-4l-1 -4l-1 5l-5 -1l1 -3h2l2 -4Z" fill="#DD9F38"/><path d="M73 47h4v4l-6 4l-8 7l-2 1H55l1 -5H54l-1 2V58H51l-1 2V57L47 56L60 55l1 2H57v4l5 -3h2V56l1 -1H63V53Z" fill="#4D3F37"/><path d="M106 54h2v2l-2 1l3 3l1 4l-1 4l7 1l3 4l-4 -2l-7 -1l-3 6l-3 2H98V73l5 -3l1 -9l-1 -5Z" fill="#768370"/><path d="M32 148l9 2l3 2v2l13 -1l7 -3l3 -1l-2 5l-4 3H57H50l-7 -1v2H40v-3l-5 -1l-3 -3Z" fill="#E5B141"/><path d="M131 87l5 1l3 1l-1 12h-4l-5 -2l3 -1V96h-5V90Z" fill="#8C5E47"/><path d="M49 139h6l2 9l1 3l-1 1H48l-2 -2v-7Z" fill="#98BBA2"/><path d="M166 95h4l1 4l5 1l-1 8h-9l-4 -2l1 -5l2 -2Z" fill="#E28F3F"/><path d="M145 92v3l-1 2h3v2l5 1l-2 10l-1 4l-3 1v-5l-2 2h-3v-8l2 -3V94Z" fill="#D89E38"/><path d="M40 165H95v1l-19 3H59L40 166Z" fill="#81A3A1"/><path d="M132 159l7 1v3l5 7l4 4l-11 1l-2 -1v-2h2l-4 -5Z" fill="#E48E48"/><path d="M104 24l2 1l-3 1v2h2l1 4l4 2h-8v2l5 1l-2 2l-9 1l2 -2l2 -5V32l-5 2H92l1 -4l3 -1l2 -4Z" fill="#423A39"/><path d="M145 140h1v5l-12 5l-6 2v-4l-10 3l-3 -1l10 -4Z" fill="#584F5E"/><path d="M81 106h4l1 16H84l-1 3l-1 -5l-4 -1l-3 2l-1 -3l5 -6v-5Z" fill="#7C856E"/><path d="M97 141h6l-2 4H94l-5 1v-2H86v4l3 3l-1 1H78l-3 -3l5 -2l1 -3l2 -1Z" fill="#DC9A39"/><path d="M149 128l3 3l2 6v8l-3 4h-4l-1 -3v-7Z" fill="#DD974F"/><path d="M103 116h1l1 9l-9 2l-1 3H86l-1 -3h4l-1 -4l9 -2l5 -2Z" fill="#DCA841"/><path d="M131 119h6v2h3l-2 3h-2v3h3l2 -4v5l-3 1h-1l-1 2H126v-5l-3 1l2 -4Z" fill="#CA9139"/><path d="M154 123h7l5 5v4l-4 -1l-1 -1v3h-7l-5 -8Z" fill="#756978"/><path d="M103 153h2l1 6l7 -1l1 5v3l1 3h-6l-1 -1v-5h-5l1 -2L94 157l4 -2Z" fill="#7B655B"/><path d="M61 40l6 1l1 2l-3 2H55l-8 1l-2 5l-2 1l2 1l1 5l4 -1l1 4l-2 3L44 59L41 54L40 49l1 -2l4 -2l2 -2L60 41Z" fill="#7E6742"/><path d="M82 155l6 1v1l-9 2l-12 3l1 2l9 1v1H52l-7 -1v-1l14 -1l8 -5l3 -1v2Z" fill="#3E3646"/><path d="M139 113h6v3h3l-2 4l-3 5h-3l-1 2h-3v-3l1 -1l-3 -1l3 -1l-3 -2Z" fill="#D89634"/><path d="M110 59h6l5 4v8l-2 2l-5 -4l-5 -1Z" fill="#F4C555"/><path d="M107 39h2l3 3l2 -1l3 4l-1 2l-5 -2l-3 -2h-2v2L96 47V45H87l-8 5l1 -4l9 -5v2l13 -2Z" fill="#54493B"/><path d="M67 29l3 1l-5 4l-1 5h5l1 -1l9 -2l3 -1l3 2l-6 3H77v4l-9 2l-5 2l4 -4V42L62 41l1 -8Z" fill="#655038"/><path d="M130 107l1 2h6l1 -2l1 7l-5 6l-5 -1l1 -4l-5 1l-2 -1l2 -4l1 -2Z" fill="#7B5A34"/><path d="M124 148h4l-1 5l-12 5h-4l-1 3v-2h-3l1 -4l10 -5Z" fill="#726875"/><path d="M68 133l2 1l1 3l4 -1l7 6l-2 2l-6 1H72H67l-5 -5v-5l2 4l2 2Z" fill="#D9A33C"/><path d="M120 48l7 1l-1 2h-2l1 5l5 2l-4 2l-4 -5l-1 1l1 3V72l-2 1V63l-4 -3l-6 -1l-1 3l-1 -4l-3 -1l3 -1l1 -3l2 1l-1 4h7l2 1L116 49h2l1 2l3 1V50h-2Z" fill="#584C36"/><path d="M68 147l3 1l-3 4v3l-7 4l-6 3l1 -4H45l-1 2l4 1l-7 -1l-5 -3l-4 -4l1 -2l6 1l-3 2h7l-3 4h3v-2l4 -1l6 1l7 1v-2l4 -1l2 -5Z" fill="#A27534"/><path d="M57 116h6l-1 5l-3 7l-1 5H55L53 121l-4 -2Z" fill="#D5A44B"/><path d="M33 162l5 1l-2 7l-3 1v3l-6 -2l-3 2H19l2 -5l3 -2v-2l5 -1l-2 4l5 -3Z" fill="#C4893F"/><path d="M139 91l4 2l1 8l-1 5l-5 5l-2 -2l-2 -6v-3l3 1l1 -9Z" fill="#544643"/><path d="M124 138l3 2l-18 11l-1 2l4 -2l3 1l-5 3h-2l-2 4l-1 -6h-2l-1 2H94l3 -2h2l1 -2l5 -1l16 -10Z" fill="#474046"/><path d="M77 128l2 2l4 7l3 2l-3 -4v-2l-2 -1h6v-2l3 -1l1 3l2 1l-1 3l-2 1l2 4H85l-4 -1l-4 -5Z" fill="#617C77"/><path d="M98 112h3v6l-7 4l-7 -1v-7l9 -1Z" fill="#F3C24F"/><path d="M93 79h7l2 2l-1 2l6 1l6 3l-3 2l-4 -3L97 84l-2 4l-3 2L88 89l1 -5Z" fill="#868062"/><path d="M108 69l7 1l4 4l-1 6h-4l-5 -3l-4 -1l2 -6Z" fill="#F4C052"/><path d="M0 0H10L9 5L5 14H3V11L1 17H0Z" fill="#D67C44"/><path d="M94 24v3l-8 2v2l5 -2l3 1l-4 4l-3 5l-9 3l1 -3l4 -2L81 35l1 -5l7 -4Z" fill="#CDA641"/><path d="M161 152l1 2l-4 7l-4 5l2 1h-3l-2 6l2 -1l-1 4l-9 -1l4 -2l-6 -5h3l4 2l1 -7v-5l2 4v3h2l2 -5l2 -4l1 -3v2h2Z" fill="#614436"/><path d="M101 30l2 1l-3 3l-2 5l-2 1L86 41l-4 2H77l1 -3v2l9 -4l2 -4L88 32h4v2Z" fill="#90703B"/><path d="M142 70l1 2l-3 2l2 2h-5l7 3l2 2l-7 -1l-4 -1l2 1v2l-8 1l1 -7h-2V74l7 -3Z" fill="#DDA642"/><path d="M7 47h7l2 4l6 1v1l-8 1H1V51H4V49H7Z" fill="#F1C15F"/><path d="M84 15l2 1l-5 4l-2 5l4 1l-8 4H72L70 28l2 -1l2 -6l5 -5Z" fill="#75644C"/><path d="M160 38h5l1 3h6l-1 6l-1 1h-5l-2 -4h-5l1 -5Z" fill="#ECAA53"/><path d="M126 92l1 2l2 1l-2 1l1 2l-9 2l-8 5l-2 5l-1 7h-1v-8l1 -7h2l2 -5l4 -4l-1 5l9 -3Z" fill="#503F33"/><path d="M89 89l4 1v4l2 2H90l-2 4l-1 6l-5 -2V99l2 -2l1 -4Z" fill="#9F9E85"/><path d="M104 77l7 1l4 4l-2 5l-4 -1l-8 -3l2 -5Z" fill="#F7C752"/><path d="M35 132l9 6l3 1l-2 3l-7 -2l-3 -2l1 1l6 3l-1 3l-9 -2l1 -7Z" fill="#F0B747"/><path d="M163 105l3 2v2h3l-2 9l-3 -3l-1 -3l1 5l2 4l-4 -1l-2 -1V107Z" fill="#BC6D46"/><path d="M126 66l3 2l-1 3l19 -3l-4 7l-6 -1l4 -2l1 -1l-9 2l-5 1l-2 4l-3 1l-1 -3l1 -7h1l1 7Z" fill="#504131"/><path d="M171 143l1 3l-3 7l-1 2l-7 1l2 -11Z" fill="#DD8943"/><path d="M87 87l2 3l-4 4v4l-2 1l-1 5l6 2l9 -1l8 -4l-1 6l-2 -2l-8 3H87v5l-2 1v-8H81V97Z" fill="#62563E"/><path d="M107 104h2l-1 5v17l-9 1l2 -2h4l-1 -9h-2v-9h1v7h2l-1 -4Z" fill="#4C4742"/><path d="M2 158H9l5 5l-1 4l-4 1L4 163L2 161Z" fill="#91BEA6"/><path d="M101 109h1l1 8l-4 4l-4 2H88l1 4H85l2 5H85l-1 -6h3l-1 -2V113l9 -1ZM98 112l-2 1l-9 1v7l7 1l7 -4v-6Z" fill="#70522E"/><path d="M102 104l1 3l-4 4l-4 2H87v-5l11 -2Z" fill="#F3C150"/><path d="M175 71h1v6l-4 4l-2 6l-1 9l-3 -1l-1 5l-3 2l1 -6l3 -8l3 -5l3 -6l2 -1Z" fill="#47373A"/><path d="M50 169l31 1v2l-6 1H58l-8 -3Z" fill="#78A49D"/><path d="M4 149l5 2l3 3l2 6l3 2v-5h1v6H15l-1 2l-3 -5L1 158v-2l5 -1Z" fill="#68715D"/><path d="M87 48h7v2l3 -2h6v1H98v2h5l-2 2l3 5v3l2 1h-2v3l2 1l-2 1v4l-5 2l3 -7V59l-2 -5L95 52L92 50H86Z" fill="#4B3F36"/><path d="M45 47l2 3V47h3l1 4h4v2H52v2h6v1H47l-1 3L45 58V53L42 52l1 -2l2 1Z" fill="#CA9E42"/><path d="M76 145l3 1l-6 3l-4 8l-6 5l-6 -1l5 -4l5 -3l2 -5l3 -3Z" fill="#E7A23B"/><path d="M129 99l4 1l3 4v5h-5h-2l-4 2v-5l2 -2l1 -2Z" fill="#C48C37"/><path d="M95 46h12l1 8l-3 2h-3l-2 -4L98 51L97 49l-3 1V48H89V47Z" fill="#6D5A43"/><path d="M86 144h3v2l7 -2l3 2l8 -1v3l-10 2l-5 -1H89v-2H86Z" fill="#E6A43A"/><path d="M11 153H27l1 2l-5 2l-5 -2l-1 7l-4 -2Z" fill="#97C0A8"/><path d="M78 119l4 1l1 2h3l1 4H84l1 6H80l-2 -6Z" fill="#77968A"/><path d="M45 157H56v3l3 1l2 2l-2 1H47l1 -4H44Z" fill="#D79431"/><path d="M122 125h3l7 2v1h-6v3l7 -1v3l-2 2l-6 1l-1 -2l1 -2h-3l-2 5l-1 -2l2 -4l3 -1l1 -2h-3Z" fill="#A67334"/><path d="M126 96h6v2h-3l1 3l-2 2l-1 -3l-4 2v-2h-2v2l-10 5v-3l8 -5l7 -2Z" fill="#C0934A"/><path d="M29 141h1l2 10l6 7l10 3l4 2H42l-6 -3l-2 -4H31l-2 -4Z" fill="#E7A337"/><path d="M23 86h8l1 3l9 1h3v2l-5 1L33 92V90l-5 1v2H23L21 89h2Z" fill="#E8AE54"/></svg>