<svg xmlns="http://www.w3.org/2000/svg" width="384" height="384" viewBox="0 0 444 444"><rect width="444" height="444" fill="#DF9A6F"/><path d="M161 266h5l-1 2h-4v11l-1 1l-7 1l-3 2l-10 2l-5 4l-12 1l-9 -3l-7 -3l-9 1l-15 5l-9 6l-6 5l-3 1l-13 1l-7 1v4H39v-2l-4 1l-1 2H51l2 8l1 1l27 1l9 1v2h37l1 5l6 1l1 3h24v2H134v2h25l7 2v2l-6 1l1 2l7 1v2h17l2 3v13h-5v5h2v2l3 1l-1 3l2 1v3l8 1l6 -1v-1l28 -1v14l2 6v12h5v5l-4 -1l-1 3l-1 -2l-58 -1l1 -2l-5 -1l-92 1l-9 -1l-6 -4l-2 -2v-5H92l1 -3l-8 1H62l-8 1l-2 -5l1 -4l-5 5H44v-5H42v-2H40v5H38v2l-5 -1l-3 -6v6l1 5l-6 -2l-1 -3H20l-3 -5v-2H15l3 6H12L0 381V272l23 -1H160ZM88 323l-1 3l18 1h22v-4Z" fill="#B5A48D"/><path d="M0 381l4 2l8 5h5l-2 -2v-3h2l3 5v2h4l-1 2l-2 -1v2l7 2l4 2v2l10 2l2 1v-3h4l1 2l4 1v2h7l3 3l17 5v2l13 3l1 1l10 2l6 2h8l9 3l13 2l1 1l12 2l1 3h9l20 -4l1 -2l6 -1h11l21 2l10 1l4 -2l6 -1l16 -1h24l7 2h5l-6 -1v-1h8l15 3l9 6l10 4h9l10 -5l4 -1h20l2 -6l4 -3l10 -2h4v-2l30 -1l4 1v-2l4 -1l-1 3l14 1v24H0Z" fill="#433F58"/><path d="M333 337h29l-1 2l7 1h76v65l-1 2h-2v-6l-4 9l-1 6h-3l-1 -16l-2 7l-4 -5l-2 -3l-2 -9l-2 -1v5l-13 2l-24 1l-1 2l4 1h-6l1 -4h-7l-2 -2l-13 -1H286l-1 -9l2 -3h2l-2 -6l2 -4l-1 -4l1 -2h-2v-5h12v-2l-7 -1v-3l4 -2h9v-2h-7v-5l3 -1l21 -1v-2v-3Z" fill="#E9BA7B"/><path d="M294 268h2v3h31l18 1l2 1v6h13l22 -1l1 -3l-3 -1l1 -2h63v68l-6 1H363l-3 -2l2 -2l18 -2h5l1 -4l6 -3h7v2l12 -3l1 -4l-9 -2v-2h19v-2l-11 -3l-16 -1l-10 -6l-10 -4l-7 -2l-9 -11l-5 -3l-27 -2l-7 -3l-9 -2l-5 -5l-12 -3Z" fill="#F5C988"/><path d="M125 318l17 1l9 1l11 -1l1 5l7 -1l87 -1l14 1h15v2h13l1 -2l18 -1l3 -1l1 -2l1 7l6 -1l32 -1l6 -2h16l15 4l13 1l-2 2l-10 1v-2l-16 3l-11 4l-1 1l-8 1H264l-9 1v-2l-8 1H192l-58 -2v-2h25v-2H135l-3 -3l-4 -1v-4h3l-1 -3l-5 -1Z" fill="#4C5061"/><path d="M356 79h11l11 3l10 6l4 5l4 12v9l-2 9l-6 9l-2 4h-2l-2 4l-5 2l-3 2H360l-8 -1v-2l-4 -1l-3 -1l-5 -5l-7 -10l-2 -9l1 -13l4 -8l6 -8h3V84l6 -4Z" fill="#FAEBBA"/><path d="M188 266h1v10h3v-2l22 -1l17 -1l-4 3l-3 1l-1 2l-10 4l-16 8l-12 4l-4 5l-3 7l4 1l-11 4l-3 7l-1 2h10l3 3l-17 2l-2 -5l-13 1l-18 -2l2 2l-1 2l-11 -1l-2 -4l-8 -2v-3l3 -3l-6 -2l4 -2l-2 -2h3l1 -5l6 1l6 -5l1 -2l-3 -1l4 -2l9 -3l4 -3l12 -3l1 -1h6v1l23 1l2 -4l1 -2h3Z" fill="#3F3B4D"/><path d="M269 281h24l23 1l9 5l2 6l6 4l11 2v1l-11 1l-6 3l-9 6l-17 -2l-2 -1H287l-10 3l-2 1H262l-12 -4l-28 -4h-5l1 -2h2l1 -4l12 -5l13 -4l12 -5Z" fill="#78555F"/><path d="M54 235H81l5 2l28 6h6l2 -1l37 1l25 1l1 5l2 4H0V240H31l21 -4Z" fill="#E07B5B"/><path d="M104 409l127 1l4 1l1 15l-4 1h-7l-5 -1H206l-16 1l-23 4H153l-12 -2l-6 -2l-12 -2L99 417L83 414l-3 -4Z" fill="#918D89"/><path d="M0 253H187v1l-89 1l2 3l6 -1h60l21 -1v11l-20 -1v2l-6 -1l-1 1H0V257l53 -1l1 -1L0 254Z" fill="#F1C896"/><path d="M355 237l12 1l17 4h8l11 -4l1 -1h12l17 6l11 2v8H294l-5 -3v-2l4 -1l39 -2l11 -4l9 -3Z" fill="#F49159"/><path d="M274 362l1 3v1h6v7l-2 3l-1 5l8 -2l1 -3l-1 5h-2l-2 11l-3 3l-16 1H233v6h-1l-1 -8l-2 -6l1 -10l1 -6l11 -1l-3 -1l1 -4l7 -1l27 -1Z" fill="#87827D"/><path d="M277 410h64l3 2l-1 6h7v2l-4 2h-5v2h8l-1 3l-3 1l1 4l3 2l-10 5h-9l-11 -5l-11 -6l-12 -2l-11 -1l-3 -1l-12 -1l4 -1l1 -6Z" fill="#C09F7D"/><path d="M99 286h9l10 4h3l1 -2l5 2l-3 2l2 1l-1 3l-6 5l-5 -1l-3 7l-3 1l5 2l-1 3l-15 1l-4 1v-2H52l-1 -4H34l1 -3h4v2h6v-4l7 -2l15 -1l-2 5l2 -2h3l1 -4l6 -5l7 -4h3v-2l-2 -1h8Z" fill="#484859"/><path d="M287 376l2 3v2h-2l-1 8v4h31v1l35 1l2 -2l9 -1l10 1l1 2l7 1v3l-38 1l2 7l-7 2l-1 1l-61 1l1 -5l2 -11v-5l2 2l3 -11l2 -1Z" fill="#D5AF83"/><path d="M234 275h35l1 2l-1 2l2 1l-10 1l-11 5l-23 8l-17 7l-16 4l-5 1H178l2 -7l5 -6l17 -6l17 -9l6 -2Z" fill="#6D515D"/><path d="M218 218l5 1v10h7v-2h2v2h13v11l-2 -2v-3h-2l-2 5l-3 6h-2v25l-3 1l1 -25H184v-3l8 -16h26Z" fill="#433C4B"/><path d="M345 254h65l-1 2l-9 1H383l-2 5h3l-1 3h-3v2h8l8 1h16v3l-32 1l-1 3h4l-1 4l-23 1l-12 -1l-1 -3l1 -3h-2v-2h-7l-2 -2l13 -3l-5 -1l1 -4l2 -1l2 1v-2h-3Z" fill="#FCECB4"/><path d="M0 184H211v5H0Z" fill="#F8BB7F"/><path d="M420 389l3 1l3 11l3 3l1 3v7l-2 2l-5 -1l-4 -2v2h-6l-1 -1v2l-13 1l-3 2h-3v2l-16 4l-4 7H356v-1l15 -1l2 -5l4 -3h3l-1 -3h2l2 -6l3 -4l25 -1l-29 -1l-3 -2l3 -1h7l-1 -3l-6 -2l1 -3l24 -1l13 -1Z" fill="#CCA47C"/><path d="M261 205h20l1 17v25h-2l-1 5l-10 1l-3 1l-1 -6l1 -6h-2l-1 -12l-1 -3l1 -2l-6 1V208Z" fill="#F9E6B9"/><path d="M266 337h67v1H301l1 5l3 1l-7 1v5h7v2l-9 1l-4 1v3l7 1v2H287v5l2 1h-7v-4h-8v2l-11 1l1 -24Z" fill="#6B6D6D"/><path d="M240 83h2v9h29V83l2 1l-2 13h-4v12h16l-1 5l-5 2l-1 -1l-40 -1v2l-5 -1l-2 -2l1 -4l3 1V100h1v9h5L238 94h2Z" fill="#3F2C38"/><path d="M253 125h23v38H259v-3l-4 3l-1 -2V129l1 -2Z" fill="#F4E2BF"/><path d="M410 254h34v14l-49 1l-15 -2v-2l3 -1l1 -2h-3v-5l2 -1h18l8 -1Z" fill="#FCDA9C"/><path d="M187 350h1v10h34l8 1v-2l2 -1l2 -3l2 4l11 1l1 3l-1 3l-7 1l-1 3l4 1l-1 1H231l1 3l-2 3v-4H204l-18 -1l-1 -2h2l-3 -3v-2h-2v-5h5Z" fill="#5F656E"/><path d="M233 396h30v12l-1 11l2 -1v4h5v1H244l-4 1l-2 -1l-2 2l-2 -9v-5h3v-5h-5Z" fill="#5B5967"/><path d="M263 165h15l1 23v16H260l3 -1l-4 -1V180l-1 -13Z" fill="#F25F46"/><path d="M223 303l14 1l13 2l12 4l16 1v3l-2 5l15 2v2l-6 1H271l-14 -1H180l-3 -3h25v-2l3 -1l1 -6ZM221 305l-12 7l2 4l2 2h47l3 -2v-3l-13 -5l-17 -3Z" fill="#3B3449"/><path d="M235 164h15v38l-3 2H234V184Z" fill="#723842"/><path d="M320 256h11v1h12l6 2v2l-4 1l-1 3h6l-1 2l-4 1H303l-5 -1v4h-2v-3h-2V258l4 -1Z" fill="#F8CC91"/><path d="M343 302h17l15 2l14 7l7 6v2H379l-17 -1l-11 -7l-8 -7Z" fill="#BE7D67"/><path d="M55 267H96l64 1v3l-55 1H0v-4Z" fill="#F2D2A4"/><path d="M221 305h12l20 4l10 4l-1 4l-2 1H213l-4 -4v-2Z" fill="#70545E"/><path d="M0 160H7l13 4l7 6l4 -1H41l9 1l13 7l1 4H57l-6 -3L12 175l-1 -2L0 172Z" fill="#FBBB76"/><path d="M236 336h19l1 1l12 -1l-2 1l-1 10l-1 14l-1 4H247l-1 -4l1 -1l-1 -23H236Z" fill="#5C626B"/><path d="M238 125h8l1 9l1 6v24H235V147l2 -16Z" fill="#748B96"/><path d="M343 401l3 1v2l4 2h-3v2l2 1l33 1v7l-3 3l-31 1l2 -1v-2h-7l1 -6l-7 -2l2 -3l5 -1Z" fill="#F7C87A"/><path d="M345 399h35l8 1l1 4l-7 1l3 4l-1 1H347l-1 -5l-1 -3l-2 -2Z" fill="#FBD989"/><path d="M187 307h12l6 4l1 6l-4 1v2H167l2 -5l6 -5Z" fill="#8C6360"/><path d="M256 45l4 2V57l2 6h3l3 3l6 2v3H240V69h-2l2 -5l6 -4l7 -5l-1 -9Z" fill="#36262D"/><path d="M251 228l12 1v28l2 1l-10 8l-3 5l-5 -1v-6l2 -4l1 -14l2 -4l-2 -1l1 -10ZM259 230l1 2v10l-1 -9l-1 -2h-5v12l1 1h8V230Z" fill="#8C9293"/><path d="M163 336h51v1l-17 1l4 2h-4v17l2 1l-7 2h-4l-1 -10l-2 -4l-17 -1l-1 -5l21 -1v-2H163Z" fill="#5E6671"/><path d="M325 287l26 1l7 3l7 9v1l-21 -1l-11 -2l-7 -5Z" fill="#BD7E6C"/><path d="M196 337h18v21h6V346l1 -9l2 1l-1 21l3 1l-4 1H192l1 -3l11 -1V340l-7 -1Z" fill="#696F77"/><path d="M241 70h23v9l-2 1H250V92h-8L241 79Z" fill="#D6C6A2"/><path d="M96 254h91v2l-21 2H106l-7 1l-3 -2l2 -1Z" fill="#F8DBA9"/><path d="M241 235h2l1 7v30H234V246h2l2 -6Z" fill="#ECD3AE"/><path d="M189 254h1v9l3 -1v2h10l8 -2l7 1l1 1v8h5v1l-34 1l-1 -9Z" fill="#8D9AA5"/><path d="M169 406l7 1l-3 3H104l-16 1l-9 -1l-2 -2l5 -1Z" fill="#9D9A92"/><path d="M189 247h43v1l-17 1l-3 3l-1 10l-8 3h-7v-1h6V252h-9v10l-3 1Z" fill="#979EA3"/><path d="M250 164h7v36l-1 2l4 2H247l1 -2h2Z" fill="#B24242"/><path d="M247 204l3 1l-1 18l-1 2h2l2 6l-1 10l-4 1l-2 -13l-5 -5V212l-1 -7Z" fill="#8796A0"/><path d="M351 420h29v2l-7 4l-2 5H354v-2h-3l2 -4l-12 -1v-2Z" fill="#F7D185"/><path d="M236 337h10l1 2l1 21H236l-1 -5Z" fill="#6F7477"/><path d="M324 305l2 1l-6 5l-1 2l4 2l4 2l5 -3h2l1 -2v2h17v-2l5 2l3 2v3l-4 -2l-2 -1H338l-7 3l-2 3h31l1 3l-38 1l-2 -7l-4 -5l-9 -3l-5 -1l2 -2l13 1Z" fill="#463A44"/><path d="M97 313h13v3l12 1l-4 1l2 4H90v-2H81l-3 -1l-1 -3H97Z" fill="#525768"/><path d="M233 195h1v9h13v1l-7 1l1 11v7l4 5H232V203Z" fill="#6D7F8C"/><path d="M282 251l7 1l7 5l-4 2v13h-7V259h-4v-2h-6v14h7v-7h1v8h-9V256l4 -3Z" fill="#D4BD93"/><path d="M236 114h26v2h-3v2l-4 1l-1 5l-3 1H237l-1 -7l-1 -2Z" fill="#5F3642"/><path d="M301 309l12 2l6 4l2 3v3l-26 -1l1 -5Z" fill="#AD766C"/><path d="M161 268h20l1 1v8h-3v-6h-2v2l-1 1l1 4l-7 1l-3 1h-7Z" fill="#534548"/><path d="M268 255l2 2h3l-2 13l-2 1H252l1 -4l9 -8Z" fill="#5C6676"/><path d="M287 308h13l-6 8l-3 4H278l-2 -1l1 -5l6 -5Z" fill="#7C5C63"/><path d="M262 114h14l2 3l-2 7H254l-2 -2l5 -4h2v-2h3Z" fill="#B4443B"/><path d="M263 395h17l-2 11l-1 1H263l-1 -1Z" fill="#836665"/><path d="M331 302l6 4l-1 7l14 -1l-2 -3l5 2l-1 3H334l-8 4l-7 -5l2 -4Z" fill="#73575C"/><path d="M300 273l2 1l4 3v2H291v-2h-2v2H269v-3H259l-5 -1v-1Z" fill="#785655"/><path d="M125 158l5 1l9 3l7 4l2 3l10 1l5 4v2l-4 -2H148l-4 -4l-16 -2v-8l-3 -1Z" fill="#F7B66A"/><path d="M338 315h16l6 4v3H329l2 -4Z" fill="#AB7A69"/><path d="M245 229h1l1 13h5l-1 4l-1 14l-2 6l-1 4l2 1l-5 1l-1 -34h1Z" fill="#697583"/><path d="M183 247h6l2 26h23v1H192v2l-10 1l-1 -8l-14 -1v-2h19V252Z" fill="#A68674"/><path d="M29 383l2 1l3 6l4 1v-2h2v-5h2v2h2v5l7 -2l1 -4l2 2l-1 5l-2 4l-1 -4l-3 8l-4 -1l-1 -2H34l-3 -2l-2 -5Z" fill="#877E7A"/><path d="M239 69l2 2l1 9l-1 3l-1 11l-1 1v14h-5h-4V93h9Z" fill="#B87B5C"/><path d="M278 93l2 2V93h4v10l-1 6H272V95h6Z" fill="#CC7E5A"/><path d="M298 267l41 1l-1 2l7 1v1H302l-4 -1Z" fill="#FCDF9C"/><path d="M223 337h6l1 24h-6l-2 -2V338Z" fill="#72787D"/><path d="M0 254H55l-2 3H0Z" fill="#F7D9A8"/><path d="M283 247l5 1l9 7l1 4l-11 -7h-5l-7 4l-1 16H245v-1l26 -1v-9l2 -4l-4 1v-4l3 -2l9 -1v-3Z" fill="#4F4F5B"/><path d="M219 298l2 1l-3 3h6l-1 2l-14 7h-3l-1 2v-2l-5 -2l-1 -1l-7 -1v-1l10 -2Z" fill="#6E5558"/><path d="M295 253H444v1H298l-1 3Z" fill="#F9CC91"/><path d="M298 254h47v2h6v1h-5l-1 2l-3 -1H330v-1H298Z" fill="#FAE0A0"/><path d="M412 235l9 2l11 4l12 2v2l-11 -1l-17 -6H404l-9 4l-3 1h-8l-23 -5l-13 1l3 -2l3 -1h11l16 4h13l9 -4Z" fill="#CE7A57"/><path d="M215 248h17v18h-2l1 -13l-7 -1v10h-1V252h-4v11l4 1l1 8h-5l-1 -8V252h-6Z" fill="#B9B8AE"/><path d="M51 313H75l3 4v2H54l-3 -2Z" fill="#AC9A88"/><path d="M226 336l10 1v18l-4 4h-3V337Z" fill="#5B5F65"/><path d="M360 317l31 2l-4 1v2l-20 1l-3 1H334v-1h26Z" fill="#343143"/><path d="M396 318l16 5v4H398l-15 -4l4 -1v-2Z" fill="#404454"/><path d="M88 323h39v4H105L87 326Z" fill="#CDB696"/><path d="M251 125l5 1l-1 3v34l3 1h-8Z" fill="#C4BDB3"/><path d="M61 402l7 4l9 1v2l4 2l2 2l16 3l14 5l1 2l-8 -1l-5 -2l-7 -1l-8 -3l-6 -2v-2l-7 -1L61 407Z" fill="#342D3A"/><path d="M214 337h7l-1 21h-6Z" fill="#555D67"/><path d="M295 315l1 2l-1 3h22l2 3H300l-1 3H285l1 -3h5v-2h-6v-1l7 -2Z" fill="#3A3544"/><path d="M280 202l1 3l-20 1l-3 2v16l-1 2l6 -1l-1 3h-7l-2 -1V214l-1 -4l1 -5l5 -1h22Z" fill="#D1C2AF"/><path d="M271 279h19l19 1v1l-40 1l-13 3l-18 7l-10 3l-3 -1l10 -4l18 -6l8 -4Z" fill="#393645"/><path d="M78 171h30l10 1l-4 4h-9l-4 -2H78Z" fill="#F1A975"/><path d="M197 340h7l1 17l-1 1l-7 -1Z" fill="#575E69"/><path d="M219 252h4l1 10l6 1V253h1v19h-7l-1 -1v-7l-4 -1Z" fill="#DCCAB1"/><path d="M301 338h21v3l2 1l-2 2H305l-3 -1Z" fill="#7A766E"/><path d="M396 313h15l9 3l2 1v2l-20 1l-4 -3v-3Z" fill="#48444B"/><path d="M62 393H93v2l11 1v1H84L60 396l-1 3l-2 -4Z" fill="#A29E97"/><path d="M250 204h8v1h-5v8l1 1l-1 13l10 1v1H253l-3 -2v-2h-2l1 -20Z" fill="#ACADAC"/><path d="M263 407h5l2 4l2 1v3h-2v7h-6l-1 -3l-2 3l1 -14Z" fill="#907870"/><path d="M319 281l8 3l27 2l7 5l-3 1l-7 -3l-28 -1l-3 -3l-2 -2Z" fill="#634B41"/><path d="M193 252h9v12h-9Z" fill="#42414F"/><path d="M257 165h6l-4 3l1 12v13l-1 9h3l1 -3v4h-8l1 -3V170Z" fill="#D54A42"/><path d="M177 271h2v6l6 -1l3 2l-5 2l-1 2H158l1 -2l8 -1l3 -1h7l-2 -5h2Z" fill="#2E2732"/><path d="M256 80h1V91h7V82l1 -2h6V92H250V91h6Z" fill="#DFCBA5"/><path d="M50 390l1 2v3l3 -1l4 2l4 8l-2 1l-7 -1v-2l-5 -1l-1 -4Z" fill="#82746C"/><path d="M332 302h6l-1 3h2l1 -3l11 10v1H336v-7Z" fill="#BA8668"/><path d="M257 43l6 3l-1 3v7l10 8l4 2l-1 5l-2 -3l-7 -2l-1 -3h-3l-3 -6V47l-3 -1l-4 -1Z" fill="#60322E"/><path d="M222 295l3 1l-11 5l-15 5l-20 4l-7 3l-3 1l2 -4l11 -4l18 -3l18 -6Z" fill="#332C39"/><path d="M269 422l13 1l12 3l5 1v1H289l-7 -2l-36 -1v-1l5 -1Z" fill="#2A2533"/><path d="M259 230h3v14h-8l-1 -1V231h5l1 2l1 9V232Z" fill="#403941"/><path d="M275 257h6l1 4v10h-7Z" fill="#E2D0AA"/><path d="M264 70h7l1 1v6h2l-2 5h2l-1 2l-2 -1V80h-6l-1 2V80l-2 -1h2Z" fill="#CCB798"/><path d="M432 399h1v17l-9 1H413l-2 -3l1 -3l1 4h6v-2l4 1l5 2l1 -4l1 -10Z" fill="#695B59"/><path d="M421 270h23v2l-63 1v2h-2l1 -4Z" fill="#FCDA9C"/><path d="M72 160h6l2 4l-1 1l-16 2H58l2 -4l1 -1l10 -1Z" fill="#F9B26E"/><path d="M188 373h16l20 1v1l-16 1v1l-20 1Z" fill="#807E7F"/><path d="M232 270l2 1l66 2v1H256l-25 -1Z" fill="#363033"/><path d="M280 176l2 1v21l2 7l-2 17h-1l-1 -18h-1V177Z" fill="#E8A86C"/><path d="M268 407h8l1 6l-3 9h-4l-1 -8l3 1v-3l-4 -2Z" fill="#C3A488"/><path d="M301 274h5l5 5l7 1l1 3l-26 -1l-4 -3v-2l4 -1l-1 2l14 1l-3 -3Z" fill="#523F3C"/><path d="M281 259h4v13h7V259h2v13h5v1H274v-1h9Z" fill="#565947"/><path d="M166 337h22v2l-20 2v2h-7l-1 -3l6 -1Z" fill="#8A8883"/><path d="M97 144l9 1l7 5l8 4l2 3l-11 -2l-10 -8l-6 -1Z" fill="#F7B06C"/><path d="M317 393h37l-1 3l-37 -1Z" fill="#EBC288"/><path d="M333 300h24l2 2H343l5 7l-4 -2l-4 -4l-1 2h-2v-2h-6l-5 2l4 -4Z" fill="#5C4340"/><path d="M276 128h1l1 17v19H258l-2 -1l1 -3h2v3h17Z" fill="#F6D29C"/><path d="M102 283l7 1l12 4l1 3l-7 -1l-7 -3H99l-6 2H88l4 -3Z" fill="#41353B"/><path d="M211 252h7v11h-7Z" fill="#3D3A4A"/><path d="M257 80h7V91h-7Z" fill="#F0E8C7"/><path d="M399 416h25l3 1v2l-31 1v-2Z" fill="#2D2734"/><path d="M83 289h4v2l-12 6l-4 4l-1 3l17 1v1H65l2 -5l11 -9Z" fill="#39353A"/><path d="M249 125h2v38h-2Z" fill="#A3ABB1"/><path d="M272 93h6v2h-6v14h-5V97h4Z" fill="#8C5143"/><path d="M275 362h7v4h7v5l-7 2l-1 -1v-6l-7 1l-2 -2h3Z" fill="#CAAF8A"/><path d="M346 238l4 2l-7 2l-11 4l-20 1H300v-1l26 -2l10 -2l6 -2Z" fill="#D47E50"/><path d="M180 428h10v1l-23 4l-4 1h-9l-4 -3l25 -2Z" fill="#322C37"/><path d="M287 306h12l6 2l-4 2l-4 5h-2l2 -4l2 -2H287l-9 3h-3v-2l8 -3Z" fill="#3F3743"/><path d="M412 268h32v2l-32 1Z" fill="#FCE4A6"/><path d="M393 97l2 1l2 5l2 1l-2 17l-7 11l-4 3l2 -4l6 -10l1 -7v-9Z" fill="#F9D380"/><path d="M76 312l17 1l4 1v2l-8 1H79l-3 -1l-1 -3Z" fill="#4C5261"/><path d="M377 304l6 1l11 6l4 3v3l4 2l1 2l-6 -2l-8 -7l-12 -7Z" fill="#443534"/><path d="M243 417h1v6h7v1l7 1v1l-16 1l-7 2h-5v-2l6 -2l2 -4v2l5 1Z" fill="#312D39"/><path d="M42 388h1l1 14L32 399v-2l-4 -1l-7 -3v-2l6 2l7 3l8 1Z" fill="#352935"/><path d="M349 424h9l1 2h-6l-2 3h3v2l2 1l-3 1h-7l-2 -5l4 -2Z" fill="#E3B87B"/><path d="M285 371h5l-2 4l-2 4l-8 2v-5l4 -4Z" fill="#C6A67D"/><path d="M226 273h30l-2 2l-20 1l-11 1Z" fill="#2A272F"/><path d="M206 425h14l10 2v2l2 1l-10 -1l-21 -2v-1Z" fill="#373045"/><path d="M438 408h1l1 9h4v3h-8l-6 -1l1 -3h5v-6Z" fill="#423B43"/><path d="M442 396l1 4l-2 7h2l1 -2v12h-4l-2 -10Z" fill="#A2856B"/><path d="M359 292l4 2l6 7l10 2l-4 2l-15 -2l-1 -2l5 -1l-5 -7Z" fill="#5C4340"/><path d="M384 407h27l1 2H386l-2 4l-2 2v-5l2 -2Z" fill="#E3BB83"/><path d="M263 230h1v12h2v10h3l3 1l-6 4h-3Z" fill="#E0CCA6"/><path d="M386 329l4 1l-4 2l-1 3l-10 2H363v-1l8 -1l6 -3Z" fill="#C9AB79"/><path d="M250 80h6V91h-6Z" fill="#F0EBC4"/><path d="M224 252h5l1 1v10h-6Z" fill="#534C48"/><path d="M246 125h3l1 39l-3 -1V140l-1 -6Z" fill="#8C9DA8"/></svg>