<svg xmlns="http://www.w3.org/2000/svg" width="384" height="384" viewBox="0 0 267 267"><rect width="267" height="267" fill="#944764"/><path d="M212 129h55V231h-3v9h-4v-4h-5V222h-5V212h-7l-6 4l-1 1l-1 22h-1v-9l-7 1V211l-11 -2l-4 -1V180h45v-2l-15 -1l-4 -3l-9 -3h-7l-5 2h-4l-1 2Z" fill="#E57D56"/><path d="M1 259H256l11 1v7H0v-7Z" fill="#221730"/><path d="M0 179H47v36l-1 -4l-4 1l-1 3l-6 3l-1 1l-2 14H29V198l-4 -1l-4 -2v2l-6 1l-1 29l-1 14H11L10 227L9 224H4L3 246H1L0 239Z" fill="#F38E53"/><path d="M189 97l7 1l15 6v71h-3v-4l-4 -1l-2 -1l-1 2v-2h-6l-2 -1v2l3 1v3l-5 1v2h-2V112l-2 -1h2ZM190 120v33h1V142h2v-2h3l1 -3l-4 -1v-2h3l1 -3l1 -1h2v-2h-2v-2h-7v-6Z" fill="#2E1F2C"/><path d="M0 254H267v3H39L0 256Z" fill="#834252"/><path d="M25 198h4v35h3l1 -14l5 -4h4v10l3 -1l1 1v9h2V223l7 -1h8l-4 2l-9 1v9h7l-1 5H54v-4H51v4H48v3l3 -1v5H49v-3H43v-4l-2 1l-2 4v-2l-3 2l-1 2l1 4l-3 2H26l-1 -3l-4 -1l-1 -3h5l-7 -1l3 -2h2V232h2v-6v-2l-1 -7Z" fill="#A9466E"/><path d="M193 168l11 1l5 2l1 2h-2v2h3v28l-3 3h-3v-2h-5v-2l-2 -1v3l-5 -1l-2 -1l-1 14h-1V177h2v-2l5 -1l-1 -3l-2 -1Z" fill="#33232D"/><path d="M72 187h5v23H69v11H67l1 17l-5 1V220l-13 2v-2H48v-3l14 -2v-5l-5 -1v-2l5 -1l-9 -1v-2l8 -2H49l2 -2l10 -3h2v-2l-10 2H48v-2l16 -4l7 1v2h5v-2l-4 -2Z" fill="#3A1E2F"/><path d="M0 256H39l228 1v3H0Z" fill="#48263C"/><path d="M226 114l13 1l5 3l7 2l2 2l12 1l2 2v4H212V118Z" fill="#EC7A7C"/><path d="M0 252H267v2H0Z" fill="#EFBD8D"/><path d="M16 165l14 1l5 3l7 2l4 2l1 -2v8H0v-8l2 -1h8l1 -3Z" fill="#F79475"/><path d="M141 57h2V216h-1L141 105l-2 7l-1 104h-1V68h4Z" fill="#633335"/><path d="M106 155l4 1l2 1v4h-4v30l-1 1h3h1l1 5h2l2 -3v24h-6v5h-1l-1 -7l-3 1l-3 -3v-4l-9 -1v-1h7V192l1 -4l4 1Z" fill="#491D33"/><path d="M141 96h1V216h-4V112l2 -7V97Z" fill="#391720"/><path d="M103 115h2v2h3v3l4 -1l1 16l1 4l3 1l-1 -4h2v23l-2 3v-4h-3l-1 6h-2v-3h2v-4l-6 -2l1 -4l2 2v-5l-3 -1v-4h3l-1 -7l-7 -4l1 -4l1 -7Z" fill="#411F34"/><path d="M160 73h1l2 9v4l4 1v8l2 4l2 28l1 2l1 13l-2 1l-1 -5V128h-2l-1 7l-1 86l-3 -1h2V100h-3v35h-1V99l3 -1V87l-4 -1Z" fill="#D86C55"/><path d="M192 208l8 1l1 1v31l-1 4h-2l-1 -6l1 -2l-13 -2l-5 -1l-1 -8h4v5h5v2h2V215l2 -3l3 -1l-3 -1Z" fill="#2A182B"/><path d="M101 99l9 3l8 3v12l-1 6l-2 -3l-2 7h2v-3h2v8l-3 -1l-1 4h-1V119l-4 1v-3h-3v-2h-2l1 8l-1 6l-2 -1Z" fill="#2A172A"/><path d="M98 99h2v21l-8 4l-8 1V105l12 -5Z" fill="#45A4B9"/><path d="M142 218h5l9 3l14 3l12 1l-2 2v7l-3 -1h2v-2l-8 -1l-20 -3l1 5v10h-2v-5h-9v-1h7v-2l-6 1Z" fill="#2C212E"/><path d="M125 72h1V86l-5 1v2l6 -2h4v8l-3 1l-2 22l-2 1V108l-1 35h-3l-1 -12V98l1 -12l4 -4Z" fill="#CA8D5E"/><path d="M250 222h5v14h5v4h4v-9h3v20l-17 -1l-1 -4V223Z" fill="#8D3563"/><path d="M87 209H99l3 1l1 6h5v-5h1v12l-4 1H92v5h6v2H92l-2 -6H88l-1 13H86V215l1 -3H85v-2Z" fill="#2E1F31"/><path d="M143 57l3 1v6l1 2h-2l1 3l-1 133l-1 15h-1Z" fill="#E5A86A"/><path d="M181 208h8l1 8v17h-2v-2h-5l-1 -5l-12 -1l1 -5l3 -1l1 -9Z" fill="#7D799D"/><path d="M200 241h1v8h4v-2h2v3h6v-2h13l-1 -4h2v3l5 1v-2l-3 -1v-2l7 1l4 -1v2l6 -1l3 2l1 3l16 1l1 2H209l-9 -2Z" fill="#883A52"/><path d="M222 170h7l11 4l2 2l13 1l2 1v2H212l1 -7Z" fill="#F69473"/><path d="M82 136h1v56l-5 1L77 171l1 -32h3Z" fill="#DD7561"/><path d="M102 130l1 3l3 1l2 -2l1 4v7h-3l1 4l2 1l1 -3v8h-3l-1 37h-1v-6h-3v-6h3V166h-2v5h-2V132Z" fill="#2D192B"/><path d="M76 159h1l1 12H72l2 2H69v2l8 1v4l-9 -2v2l9 1v4l-9 -1v2l2 1v2H68l-1 2l-3 -1l1 -7l-1 -1v-6l-3 -1v-2h3L63 163l-1 -2h5l4 3l4 1Z" fill="#2E1823"/><path d="M99 120h1v22l-7 3l-9 2v-8l5 -2h3v-2l-4 -1l7 -3l-3 -1l4 -2l-9 3H84v-6l13 -4Z" fill="#619CAC"/><path d="M124 120h2l2 22l1 30h-3V146h-3v8l-1 7h-2v3h2v13h-2l-1 -12V131h1l1 12h1l1 -21Z" fill="#D19458"/><path d="M21 195l4 1l1 2l-1 19v7l2 1l-2 7H23v10l-5 1L17 229H16V214l2 -14l3 -3v30l2 -31Z" fill="#AF5078"/><path d="M166 135l3 3l2 6l1 31v19h-1l-1 -5h-1v-5h-3Z" fill="#F68D5C"/><path d="M166 184h3l2 4l2 12v20h-2v4l-10 -1l3 -2h2Z" fill="#F69D4A"/><path d="M110 218h8v1h21l-2 2l-13 2h-8v3l18 -1v5h-2v-2l-26 2l-1 10h-2V228l3 -1v-2H92v-1l18 -1Z" fill="#357D8F"/><path d="M111 168l3 1v5l3 1l1 1v42h-2l-1 -19l-1 -2h-2l-1 4l-2 -17v-8l3 -1Z" fill="#451B32"/><path d="M67 140l10 2v17l-2 6l-6 -1l-2 -2l-4 -1v-8l2 -4v2h5l-2 -2l2 -4h4l-7 -2Z" fill="#341B27"/><path d="M150 106l2 1v24h2v2h-2v48h-2v9h-1V116Z" fill="#3A1924"/><path d="M163 136h1l1 7v77h-3V150Z" fill="#4F2826"/><path d="M174 151h1v22l11 -3h3v11l-5 2h-9l1 12h-3V174Z" fill="#6F8A95"/><path d="M162 100h3v43l-3 3l-1 73l-3 -1h2V128h1Z" fill="#5F312A"/><path d="M136 93h1V198l-2 3V98Z" fill="#FADC9E"/><path d="M138 57h3V68h-4V82h-1V72h-2V83l-6 1V73l1 -1l1 -11Z" fill="#F3BD4E"/><path d="M149 72l2 1l-1 12l-3 1v88l-2 2V83l4 1Z" fill="#512225"/><path d="M187 181h2v16l-12 1l1 -3h-2l-1 -3v-9Z" fill="#4D8590"/><path d="M49 135h2v3H48l1 29l10 -3l4 1l-3 3l-8 3H48l1 14l9 -2h5v2l-12 4H48v2l7 -2h8v2l-12 3H47L46 162l1 -25Z" fill="#CC8561"/><path d="M61 135h2v14l-10 4l-4 1V140l5 -3Z" fill="#8C9B9A"/><path d="M98 142h2v12l-8 3l-4 2H84V147l9 -3Z" fill="#8D92AF"/><path d="M138 52l2 1v4l-8 4h-2V72l-1 1l-1 11l6 -1V72h2l1 10V93l-1 5h-1V85l-3 2l-8 1v9h-1V89h-2V87l5 -1V72h2V59l1 -2h3V54Z" fill="#F4DC7F"/><path d="M4 223H9l2 4v14h2V227h1v16l-5 3L3 245V224Z" fill="#B04A6C"/><path d="M0 239H1v7l5 -2l3 1l2 -2H23l3 2l-2 1l-4 -1l2 3h4v4H0Z" fill="#7D315B"/><path d="M152 233l18 1l1 1v5h2l-2 4l-15 -1l-4 -1Z" fill="#45DAD4"/><path d="M137 243h3v7h2l1 -3v3h3l1 -4v4h3v-3h3v2l4 -1h13l1 -5h3v9H134v-2h2Z" fill="#905848"/><path d="M122 228h10v2l-20 3l9 1v3l-5 1v2h6v2H109v-3h-3V229Z" fill="#68EAE0"/><path d="M137 216h6l-1 19l6 -1v2l2 2h-3v5h-1v-5h-2v4l-3 -1l1 -3h-2v5h-3V222h-5v-1l5 -1H125v-1l12 -1Z" fill="#428D99"/><path d="M127 173h1l1 14v19h2v2h-2v8l2 1l-5 1l-2 -1V191l2 -8Z" fill="#D59B5C"/><path d="M118 106h1V218h-1V176l-2 -1l-1 -1v-9h-2v-7l4 1Z" fill="#742E39"/><path d="M83 185h1v13l16 -3v9l-8 1v2l-9 2Z" fill="#7D567B"/><path d="M132 96h1l1 5l-1 91h-1l-1 -56l-2 -7l1 -21Z" fill="#653440"/><path d="M201 241h3v3h2v-3h10v3l4 -2h5l1 6l-8 1l-5 -1v2h-6v-3h-2v2h-4Z" fill="#EEC86C"/><path d="M127 230h5v12H122v-2h-6l-1 -3h6v-3H108l4 -2Z" fill="#43E2DA"/><path d="M175 195h3v2h11v11l-14 2Z" fill="#4E8A92"/><path d="M59 223h4v15l-5 1v-2h2v-3H50l-1 2V225l1 -1Z" fill="#9E5A90"/><path d="M168 97l2 1v6l5 -2v37l-2 -4l-2 -6l-1 -2Z" fill="#B05B6F"/><path d="M221 210l5 1v27l-1 3l-3 -1v-2h-2V221Z" fill="#261826"/><path d="M96 154h4v11l-12 3H84v-9l8 -3Z" fill="#80809B"/><path d="M242 212h1l1 9h-3v14l-3 -1v8l-3 -3V217l4 -4Z" fill="#C36783"/><path d="M177 135h5l1 2h6v10l-14 2V136Z" fill="#4A98A4"/><path d="M144 20h1l1 13l2 11l4 2l2 6h3l3 8V73l-3 -1L156 61l-3 -6l-4 -2l-2 -6l-3 -2Z" fill="#D46768"/><path d="M48 171l1 2l7 -2h8v2H61l2 5l-7 1l2 5l-10 2Z" fill="#B0795C"/><path d="M62 149h1v12l-10 3H49V154l10 -4Z" fill="#75909D"/><path d="M100 99h1v72h2v-5h2v12h-3v6h3v5l-4 -1l-1 4Z" fill="#40293F"/><path d="M97 247h3v2l7 -1h25l4 2h-2v2H96Z" fill="#7D454B"/><path d="M47 194h1v26l3 1l5 -1h7v2l-15 1v11H46l-1 -9H42L41 208l1 4l4 -1Z" fill="#C96767"/><path d="M156 185h2v36l2 1l-9 -1l-8 -3l1 -16h1v14h2V204h2v14h7Z" fill="#DA8947"/><path d="M115 243h22v5l-5 1l-25 -1v-4Z" fill="#EAD64F"/><path d="M211 215h5v25l-3 -3v-5h-4l-1 2V223l-2 -2v-5Z" fill="#2AC6CA"/><path d="M212 208h4v7H202v25h14v1h-6l-1 3v-3h-3v3h-2v-3h-3l-1 -32Z" fill="#4B8387"/><path d="M179 243h17l4 2v5l9 1v1H174v-3l2 -1h21v-3l-18 -1Z" fill="#76403C"/><path d="M64 126l7 1l4 2v7h2v5L67 139l-1 2H64Z" fill="#2A1424"/><path d="M243 211l7 1v34l-1 -2l-3 -1l-1 -23l-2 -3Z" fill="#9D3E69"/><path d="M184 108h5v10l-11 3h-3V111Z" fill="#4EB0B9"/><path d="M83 105h1v75l13 -4h3v4l-17 5Z" fill="#6D627A"/><path d="M147 59l7 2l2 2l1 10l1 1V87l-1 11h-1V87h-2V85h2V75h-2v9h-2V72h2V69l-6 -1Z" fill="#CD7D2F"/><path d="M216 209l5 1v11l-1 17l1 3h-5Z" fill="#1E2236"/><path d="M158 161h2v57h-2V185h-2v14h-1V178h1l1 5Z" fill="#3F1F26"/><path d="M141 17h2l1 25l1 3l4 3v5l5 2l3 6l1 11l2 1l-1 3V74l-3 -1L155 63l-8 -5l2 -1l5 2l-3 -3l-3 -2l-4 -7l-4 -1h-3l3 -3Z" fill="#F4E187"/><path d="M140 238h2v3l2 1v-4h6v4l20 1v1H153v3h-3v3H140Z" fill="#DDC967"/><path d="M140 45l5 2l4 7l5 3v2l-6 -1h-3l-7 -2V53l-5 1l1 -3h2V47Z" fill="#F9DA4B"/><path d="M188 97h1v11l-14 3v-9Z" fill="#3B9DAA"/><path d="M73 235l10 2v-2l3 1l1 7l6 -1v2H89v2H87v-2H71l1 -8Z" fill="#B66166"/><path d="M71 170l6 1l1 2v37H77V187l-3 2l2 4H71v-2H68l1 -4l-1 -3l9 1v-4l-9 -1v-2l9 2v-4l-8 -1v-2l3 -1Z" fill="#844137"/><path d="M151 227l15 1l13 3v2l-9 1H160l-8 -1l-1 -1Z" fill="#5B6B68"/><path d="M158 103l2 1l1 7v17l-1 33h-2Z" fill="#2E1A27"/><path d="M124 222h13l-1 20h-4V230h2v-5l-8 1H116v-3Z" fill="#54DCD9"/><path d="M182 147h7v8l-4 2l-10 1v-9Z" fill="#55A5B4"/><path d="M57 194h6v2l-12 4H63l-2 2l-8 1v2H63l-1 2l-13 2l-1 -2V196Z" fill="#CC8E57"/><path d="M131 148h1v44l-1 13h-2l-1 -24v-7l2 -6Z" fill="#7D4149"/><path d="M133 85h2V210h-1Z" fill="#F0D17C"/><path d="M187 155h2v10l-14 2v-9Z" fill="#408798"/><path d="M198 201l3 1l-1 2h5v2l6 -3v6H195l-3 -1v2l4 1l-4 1l-1 3h-1v-8l1 -5l7 2Z" fill="#221922"/><path d="M48 138l3 1l-1 4l-1 21l13 -3l2 2v8l-15 2v-2l11 -4h2v-2l-13 2l-1 3Z" fill="#5F3A4E"/><path d="M96 204h4v4l-15 2v2h2l-1 24l-3 -1V209l3 -2h6v-2Z" fill="#7E5D8D"/><path d="M147 86h2v60h-2Z" fill="#D8894E"/><path d="M96 165l4 1l-8 3l-3 1l-1 4l12 -1v3l-13 4H84V168Z" fill="#B889A6"/><path d="M147 146h2v58h-2l-1 -30Z" fill="#E8934D"/><path d="M151 88h1v6h2V88h2V98h2V89h3v22l-2 -3l-1 -9h-3l1 9h-2V98l-4 -1V89Z" fill="#442029"/><path d="M48 207l1 2l8 -1l6 1v6l-1 1l-14 1Z" fill="#955860"/><path d="M59 125h4v10l-10 4l-2 -1l1 -10Z" fill="#3B9AB3"/><path d="M170 233h14l6 2l8 2l-1 3l-11 -1l-7 -1l-5 -2v7l-2 -1l1 -2h-2Z" fill="#2B4656"/><path d="M149 85h1l1 11l2 2l1 11h2v6l-1 1l-1 15h-2l-1 -24l-1 9h-1Z" fill="#582626"/><path d="M140 16h4V42h-1V17h-2V43l-4 4l-1 4h-2l-1 3l-1 -3l2 -6h2l-1 -5l4 -5Z" fill="#D6777A"/><path d="M121 180h2v38h-3V181Z" fill="#BC724A"/><path d="M157 126h1v57l-2 1l-1 -12V155l1 -7l-1 -11h2Z" fill="#C06A3D"/><path d="M41 239h2v4h4l2 4h3v2h2v-2h2v2h2v-2h3v3l-2 1H53l-3 -1l-12 1l-1 -7h3Z" fill="#D0856A"/><path d="M174 236l5 1l19 3v4l-24 -1Z" fill="#4DCDB9"/><path d="M92 225h14v2l-2 1l-1 8H93v-5h5v-2H92Z" fill="#3AA3A7"/><path d="M202 215h9v1h-5v23h6v1H202Z" fill="#2FB9C2"/><path d="M108 161h2v3h2l1 -2v3h2v9h-1l-1 -5l-2 -1l2 7l-1 6h-1v-5h-2l2 16l-3 4l-2 1v-6h2Z" fill="#2C1A2B"/><path d="M190 120h1v6h7v2h2v2h-4l1 2l-1 2h-3v2l4 1l-1 3h-3v2h-2v11h-1Z" fill="#211721"/><path d="M133 108h1V217h-1Z" fill="#953F3D"/><path d="M78 214h5v8l-1 7l-2 -1l-1 2l3 1H78v-3l-3 -1v-1l-3 -1l1 -4l5 -2l1 -2l-3 1l-3 -1v-2Z" fill="#866DA8"/><path d="M127 89h1v53h-1l-1 -12V120h-2l-1 2V99h1l1 10v9l1 -15Z" fill="#F5CB75"/><path d="M67 242h3v2l9 -1l8 1v2h2v-2h2v5H89v-2H85v2H80v-2l-9 2l-5 -1Z" fill="#EECC98"/><path d="M161 136h1l1 18v66l1 2l-6 -1v-2h3Z" fill="#F7A348"/><path d="M29 124h7l5 3l7 2v1H20v-2h5l1 -3Z" fill="#E97B7D"/><path d="M78 209h5l1 4l-6 2l-5 1l-1 2h2v2l-3 3H67v-2h2V210Z" fill="#6687AC"/><path d="M244 219l2 1l1 23l2 1v2l-7 -2V221h2Z" fill="#B75777"/><path d="M145 59l3 1v8l6 1v3l-3 1l-2 -1V84l-4 -1V66V64Z" fill="#94422A"/><path d="M57 234h3v3H58v2l5 -1l6 1v-3h3l1 5H71l-1 3v-2H67v-2H64v5l-1 -2H58l-2 1l-2 -1v-3l-4 -1l1 -4h3v4h2Z" fill="#ED9B68"/><path d="M124 146h2v26h3l-1 2l-2 14l-2 3Z" fill="#AC694C"/><path d="M72 216l7 1l-1 3l-5 1l-1 10l2 4l-5 1v3l-2 -1V223h4l1 -3h2v-2H72Z" fill="#8171AF"/><path d="M82 222h1v15l-7 -1l-5 -5l1 -5l4 -2v3l2 1v3l1 -1v-6l2 4l1 1Z" fill="#876599"/><path d="M154 164h2v38l-1 5h-1l-1 -17l-2 2l-1 -2v-9h2Z" fill="#3D1E26"/><path d="M48 239l6 1v3h2l2 -3v3h5l2 5H63v2H61v-3H58v2H56v-2H54v2H52v-2H49l-1 2l-1 -6h2v3h2l-1 -4H48Z" fill="#F3E295"/><path d="M174 243l20 1l3 1v3l-23 1Z" fill="#ECC388"/><path d="M87 216h1v9l3 -1l1 6v13H87Z" fill="#26182A"/><path d="M63 125l3 1H64v15h2l1 -3l3 1l-2 1l-1 3l9 2l-3 1l-3 -1l-1 4l3 3l-7 -1l-2 2Z" fill="#502931"/><path d="M207 217h1l1 13v2h4l2 -2v10l-9 -1V221Z" fill="#3CCFCC"/><path d="M152 133h2v29h2v2h-2v9l-1 10h-1Z" fill="#77322E"/><path d="M93 241h3v2l5 -1v2h3v-3l3 1v7h-7v-2l-6 2l-3 -1v-4h2Z" fill="#E7C474"/><path d="M63 176h1v6l2 1v5H64l-1 3v-2l-11 2H48v-2l12 -4h3v-2H57l-1 -4l7 -1Z" fill="#582A37"/><path d="M96 180h4v5l-13 4h5l-3 2l-5 1v-8Z" fill="#A37C96"/><path d="M211 118h1v91h-1Z" fill="#944764"/><path d="M123 146h1l1 49l-1 23h-1V164h-3v-3h2Z" fill="#F9C649"/><path d="M172 130h1l2 9v12l-1 23l-2 -4Z" fill="#C6706D"/><path d="M129 129l2 3l1 4v12l-1 20l-2 2Z" fill="#613D5C"/><path d="M184 121h4v2l-4 2l-1 2h6l-1 2l-5 2l-8 1v-8Z" fill="#5AABB9"/><path d="M154 116h2v24l1 9l-1 13h-2Z" fill="#2F1B2B"/><path d="M153 98h1v10h2l-1 -9h3v27l-1 11h-1l-1 -22l1 -6h-2v5h-1Z" fill="#AE5234"/><path d="M134 40l2 3v2l-2 1l-2 8l-3 1l-4 8l-2 -2V59V56l5 -7l2 -5Z" fill="#B25264"/><path d="M15 215h1l1 13h1v15l-5 1l1 -27Z" fill="#A94A7D"/><path d="M152 189l2 1l1 12h1v16h-7l3 -1Z" fill="#6F362A"/><path d="M227 231h6v12h-4l3 3v2l-5 -1Z" fill="#A14464"/><path d="M188 128h1v9l-7 1v-2h-7l1 -5l9 -2Z" fill="#52A4B1"/><path d="M241 221h1v24h-2v-2l-6 2l-1 -1l-1 -14h2v9l3 1l1 -6h2Z" fill="#C75F79"/><path d="M19 127h6v1H20v2l27 -1l4 -1v3H6v-2Z" fill="#DD6F78"/><path d="M141 15h4l2 10v7l3 1l2 11l2 3l-1 3l-3 -5l-3 -3l-2 -9L144 16Z" fill="#AC4A6D"/><path d="M77 247h3v2h2l1 -2v2h2v-2h4v2l5 -1l2 1v3H76l-1 -4Z" fill="#90454B"/><path d="M81 192h2v17H78V193Z" fill="#E78757"/><path d="M181 165h8v5l-14 3v-6Z" fill="#58A8B1"/><path d="M132 86h2v15h-2l-2 23h-1V95h2V87Z" fill="#96545F"/><path d="M158 74l2 2V86l4 1V98l2 1h-5V89h-3v9h-1V87Z" fill="#F5BF59"/><path d="M149 190h2l1 2v25h-3l-1 -26Z" fill="#3A1924"/><path d="M145 176h2v40h-2Z" fill="#4A1F25"/><path d="M172 170h1v25h2v24l-2 1l-1 -20Z" fill="#D47C71"/><path d="M97 185h3v7l-16 1l1 -2l3 -1l-2 -1l6 -3Z" fill="#AE788E"/><path d="M21 196h2v21l-1 12l-2 -2V203Z" fill="#A3507D"/><path d="M92 231h1v5h10l1 8h-3v-2l-5 1v-2l-4 1Z" fill="#4FA6A7"/><path d="M136 198h1v20l-12 2H114l4 -2l10 -1h6l1 -16Z" fill="#D2CDA8"/><path d="M122 164h1v16l-2 1l-1 37h-1V165h1v12h2Z" fill="#EDB155"/><path d="M129 54h3v3h-3l-1 15h-3V82l-2 1l1 -17l3 -9Z" fill="#D36362"/><path d="M128 96h1v74h-1Z" fill="#C68F60"/><path d="M105 230h1v9h3v3h27V230h1v13l-30 1l-1 -2h-3v-2h2Z" fill="#35A8A5"/><path d="M150 73h2V84h2V75h2V85h-2v2l2 1h-2v6h-2l-1 -5h-1Z" fill="#4C1A22"/><path d="M153 244h17v4l-17 1Z" fill="#F7DE5A"/><path d="M96 127l3 1l-4 2l3 1l-9 3l3 1v2l-8 2v-8Z" fill="#8EA8AF"/><path d="M167 127l3 1l2 15v32h-1l-1 -31l-3 -7Z" fill="#E67C65"/><path d="M64 240h3l-1 8h9l1 4H61l-2 -2h4v-2h2l-1 -2Z" fill="#8D363D"/><path d="M92 192h8l-1 4l-11 2H84v-5Z" fill="#9E7288"/><path d="M36 242h3v2H37l1 7l2 -1H50l1 -2v2l10 1v1H33l1 -2l-1 -4l2 -2Z" fill="#913855"/><path d="M15 197h5l-1 4l-2 13l-3 3V198Z" fill="#B85B73"/><path d="M99 166h1v7l-3 1H88l1 -5Z" fill="#637289"/><path d="M131 192h2v25l-4 -1v-8h2v-2l-2 -1h2Z" fill="#8F3B35"/><path d="M123 69h1l-1 14l-2 3l-2 20l-2 -2V88l4 -6V79l-2 -2l3 -4Z" fill="#C25462"/><path d="M117 117h1v19h-2l1 4l-4 -1l1 -8h2l1 -7h-2v3h-2v-6Z" fill="#4E2235"/><path d="M226 211h1v33h-2v-2l-9 2v-3h5v-2l-3 -1h4l1 -2v4l2 1Z" fill="#4A252E"/><path d="M185 118h4v9h-6l1 -3l4 -1v-2l-9 3h-4v-3Z" fill="#358191"/></svg>